<?xml version="1.0" standalone="no"?>
<!DOCTYPE svg PUBLIC "-//W3C//DTD SVG 20010904//EN"
 "http://www.w3.org/TR/2001/REC-SVG-20010904/DTD/svg10.dtd">
<svg version="1.0" xmlns="http://www.w3.org/2000/svg"
 width="16.000000pt" height="16.000000pt" viewBox="0 0 16.000000 16.000000"
 preserveAspectRatio="xMidYMid meet">
<metadata>
Created by potrace 1.11, written by Peter Selinger 2001-2013
</metadata>
<g transform="translate(0.000000,16.000000) scale(0.002000,-0.002000)"
fill="#000000" stroke="none">
<path d="M3829 7986 c-95 -49 -132 -173 -79 -264 l19 -32 -245 0 c-188 1 -249
-2 -261 -12 -36 -29 -66 -129 -72 -240 -1 -16 -15 -18 -138 -18 -158 0 -177
-6 -210 -66 -26 -47 -57 -160 -62 -229 -1 -8 -194 -11 -608 -12 -592 0 -685
-4 -710 -25 -7 -6 -13 -7 -13 -4 0 16 -140 -68 -180 -107 -60 -59 -116 -149
-142 -226 l-21 -66 -1 -3090 c-2 -2508 1 -3102 11 -3155 37 -184 165 -329 343
-391 l65 -22 2600 -1 c1430 -1 2620 2 2645 5 86 14 100 18 155 46 126 64 225
181 267 316 l22 72 -1 3110 0 3110 -25 71 c-66 187 -216 320 -396 351 -21 3
-310 6 -644 6 -421 1 -608 4 -609 11 -3 82 -31 192 -60 241 -11 18 -32 38 -47
44 -15 7 -90 13 -167 14 l-139 2 -1 40 c-3 66 -16 139 -26 149 -5 6 -9 17 -9
25 0 9 -12 24 -26 34 -22 17 -48 18 -259 18 l-235 -1 17 27 c56 85 25 206 -69
266 -24 15 -61 17 -345 17 -250 0 -324 -3 -344 -14z m2855 -1421 c35 -19 73
-71 85 -115 2 -8 3 -1306 3 -2885 0 -2615 -1 -2873 -16 -2907 -22 -50 -61 -84
-110 -96 -26 -6 -964 -9 -2511 -8 l-2470 1 -35 22 c-43 27 -60 54 -75 118 -16
70 -13 5748 3 5787 16 40 62 77 111 92 36 10 510 13 2510 12 2457 -1 2466 -1
2505 -21z"/>
<path d="M2259 5732 c-13 -2 -15 -47 -15 -315 l1 -312 305 -1 c168 0 310 1
315 3 12 4 13 608 1 620 -7 7 -572 12 -607 5z m281 -92 c19 0 61 0 93 0 33 0
63 -2 68 -6 5 -3 9 -1 9 3 0 5 15 7 34 5 l34 -4 1 -219 0 -219 -22 1 c-12 1
-51 1 -87 0 -36 0 -81 0 -100 0 -19 1 -39 0 -45 -1 -24 -4 -105 -1 -114 4 -5
4 -12 2 -16 -4 -4 -6 -13 -7 -23 -1 -9 4 -21 7 -27 5 -14 -5 -12 413 2 427 6
6 36 9 67 7 31 -1 56 1 56 5 0 5 8 6 18 3 9 -3 33 -6 52 -6z"/>
<path d="M3136 5430 c-2 -5 0 -229 3 -240 0 -3 638 -5 1416 -5 l1415 0 0 125
0 126 -1416 0 c-778 0 -1416 -2 -1418 -6z"/>
<path d="M2252 4531 c-12 -9 -9 -621 3 -622 5 -1 144 -2 308 -2 257 -2 300 0
306 13 5 12 7 473 2 591 l-1 26 -305 0 c-167 0 -308 -3 -313 -6z m510 -90 c15
-1 17 -22 17 -219 l1 -218 -218 1 c-119 1 -219 3 -222 3 -4 2 -4 315 -1 417 1
19 7 20 203 18 112 0 211 -2 220 -2z"/>
<path d="M3200 4243 c0 -5 -15 -7 -32 -5 l-33 4 0 -126 -1 -126 31 -1 c39 -1
2788 -1 2798 0 4 1 7 57 7 125 l0 124 -64 0 c-35 0 -69 2 -75 6 -6 4 -11 4
-11 -1 0 -9 -93 -9 -108 0 -5 4 -12 4 -16 0 -3 -3 -41 -5 -84 -4 -42 1 -86 2
-97 2 -119 -3 -155 -2 -164 4 -6 3 -11 3 -11 -2 0 -9 -93 -9 -108 0 -5 4 -12
4 -16 0 -3 -3 -41 -5 -84 -4 -42 1 -86 2 -97 2 -119 -3 -155 -2 -164 4 -6 3
-11 3 -11 -2 0 -9 -93 -9 -108 0 -5 4 -12 4 -16 0 -3 -3 -41 -5 -84 -4 -42 1
-86 2 -97 2 -119 -3 -155 -2 -164 4 -6 3 -11 3 -11 -2 0 -9 -93 -9 -108 0 -5
4 -12 4 -16 0 -3 -3 -41 -5 -84 -4 -42 1 -86 2 -97 2 -119 -3 -155 -2 -164 4
-6 3 -11 3 -11 -2 0 -10 -102 -9 -118 0 -6 4 -13 4 -16 -1 -6 -9 -59 -8 -75 3
-6 3 -11 2 -11 -2 0 -10 -41 -10 -57 0 -7 4 -14 4 -17 -1 -6 -9 -59 -8 -75 3
-6 3 -11 2 -11 -2 0 -10 -41 -10 -57 0 -7 4 -14 4 -17 -1 -6 -9 -59 -8 -75 3
-6 3 -11 2 -11 -2 0 -10 -41 -10 -57 0 -7 4 -14 4 -17 -1 -6 -9 -59 -8 -75 3
-6 3 -11 2 -11 -2z"/>
<path d="M2249 3383 c-1 -5 -2 -146 -3 -315 l-1 -308 75 -1 c74 0 452 0 520 1
l35 0 -2 307 c0 170 -1 311 -2 316 -1 9 -621 9 -622 0z m526 -308 l0 -220
-213 0 c-118 0 -216 4 -219 8 -7 12 -7 412 0 424 3 4 101 8 219 8 l213 0 0
-220z"/>
<path d="M3165 3090 l-29 -5 -1 -118 c-1 -65 3 -121 8 -124 5 -3 28 -5 50 -4
23 1 49 2 57 2 8 -1 62 -1 120 0 58 0 111 0 118 -1 6 0 20 -1 30 -2 9 0 35 0
57 1 40 1 247 3 275 2 8 -1 62 -1 120 0 58 0 112 0 120 0 8 -1 62 -1 120 0 58
0 112 0 120 0 8 -1 62 -1 120 0 58 0 112 0 120 0 8 -1 62 -1 120 0 58 0 112 0
120 0 8 -1 62 -1 120 0 58 0 112 0 120 0 8 0 53 0 100 0 47 0 91 0 98 -1 6 0
20 -1 30 -2 9 0 35 0 57 1 40 1 247 3 275 2 8 -1 62 -1 120 0 58 0 110 0 115
0 140 -6 125 -20 125 124 0 112 -2 125 -17 125 -187 4 -2768 4 -2788 0z"/>
<path d="M2247 2263 c-7 -14 -2 -611 5 -618 9 -9 606 -10 615 -1 4 3 7 146 7
316 l1 310 -312 0 c-171 0 -314 -3 -316 -7z m530 -308 l2 -220 -219 0 -220 0
-1 30 c-1 37 -1 350 0 385 l1 25 218 0 217 0 2 -220z"/>
<path d="M3139 1968 c-6 -13 -3 -241 4 -245 8 -5 431 -8 452 -3 6 1 12 2 15 1
7 -3 2322 -3 2335 0 6 1 13 1 18 0 4 0 7 55 7 124 l0 125 -1415 0 c-778 0
-1416 -1 -1416 -2z"/>
</g>
</svg>
